<?xml version="1.0" encoding="UTF-8" standalone="no"?>
<!DOCTYPE svg PUBLIC "-//W3C//DTD SVG 1.1//EN" "http://www.w3.org/Graphics/SVG/1.1/DTD/svg11.dtd">
<svg width="100%" height="100%" viewBox="0 0 64 64" version="1.1" xmlns="http://www.w3.org/2000/svg" xmlns:xlink="http://www.w3.org/1999/xlink" xml:space="preserve" xmlns:serif="http://www.serif.com/" style="fill-rule:evenodd;clip-rule:evenodd;stroke-linejoin:round;stroke-miterlimit:2;">
    <g transform="matrix(1.33333,0,0,1.33333,0,0)">
        <g transform="matrix(1,0,0,1,-0.206957,-2.5363)">
            <path d="M12.878,14.726C13.455,14.193 14.079,13.701 14.75,13.25L16.9,15.4C16.202,15.811 15.562,16.28 14.981,16.805L12.878,14.726ZM32.94,16.5C30.487,14.2 27.524,13.05 24.05,13.05L23.05,13.05L26.05,16.05L23.9,18.2L17.25,11.55L23.9,4.9L26.05,7.05L23.05,10.05L24.05,10.05C28.346,10.05 32.01,11.492 35.042,14.375L32.94,16.5Z" style="fill:rgb(205,92,92);stroke:rgb(205,92,92);stroke-width:1px;"/>
        </g>
        <g transform="matrix(-1,1.22465e-16,-1.22465e-16,-1,47.9837,48.3637)">
            <path d="M12.878,14.726C13.455,14.193 14.079,13.701 14.75,13.25L16.9,15.4C16.202,15.811 15.562,16.28 14.981,16.805L12.878,14.726ZM32.94,16.5C30.487,14.2 27.524,13.05 24.05,13.05L23.05,13.05L26.05,16.05L23.9,18.2L17.25,11.55L23.9,4.9L26.05,7.05L23.05,10.05L24.05,10.05C28.346,10.05 32.01,11.492 35.042,14.375L32.94,16.5Z" style="fill:rgb(205,92,92);stroke:rgb(205,92,92);stroke-width:1px;"/>
        </g>
        <g transform="matrix(6.12323e-17,-1,1,6.12323e-17,-1.55491,47.0601)">
            <path d="M12.878,14.726C13.455,14.193 14.079,13.701 14.75,13.25L16.9,15.4C16.202,15.811 15.562,16.28 14.981,16.805L12.878,14.726ZM32.94,16.5C30.487,14.2 27.524,13.05 24.05,13.05L23.05,13.05L26.05,16.05L23.9,18.2L17.25,11.55L23.9,4.9L26.05,7.05L23.05,10.05L24.05,10.05C28.346,10.05 32.01,11.492 35.042,14.375L32.94,16.5Z" style="fill:rgb(205,92,92);stroke:rgb(205,92,92);stroke-width:1px;"/>
        </g>
        <g transform="matrix(1.11022e-16,1,-1,1.11022e-16,49.3899,-1.22052)">
            <path d="M12.878,14.726C13.455,14.193 14.079,13.701 14.75,13.25L16.9,15.4C16.202,15.811 15.562,16.28 14.981,16.805L12.878,14.726ZM32.94,16.5C30.487,14.2 27.524,13.05 24.05,13.05L23.05,13.05L26.05,16.05L23.9,18.2L17.25,11.55L23.9,4.9L26.05,7.05L23.05,10.05L24.05,10.05C28.346,10.05 32.01,11.492 35.042,14.375L32.94,16.5Z" style="fill:rgb(205,92,92);stroke:rgb(205,92,92);stroke-width:1px;"/>
        </g>
    </g>
</svg>
